<svg width="212" height="212" viewBox="0 0 212 212" fill="none" xmlns="http://www.w3.org/2000/svg">
<g clip-path="url(#clip0_2001_158)">
<path d="M212 106C212 164.542 164.542 212 106 212C47.4582 212 0 164.542 0 106C0 47.4582 47.4582 0 106 0C164.542 0 212 47.4582 212 106Z" fill="black"/>
<path fill-rule="evenodd" clip-rule="evenodd" d="M119.763 65.396C125.052 71.0687 131.934 73.3345 135.137 70.4626C138.345 67.5853 136.659 60.6514 131.376 54.9788C126.087 49.3006 119.204 47.0403 116.002 49.9121C112.793 52.7894 114.474 59.7233 119.763 65.396ZM150.807 86.7818C148.715 88.6655 144.215 87.1804 140.76 83.4678C137.305 79.7551 136.199 75.2235 138.296 73.3454C140.393 71.4618 144.894 72.9468 148.348 76.6594C151.803 80.3721 152.909 84.9037 150.812 86.7818H150.807ZM115.744 22.7498C113.075 20.3366 109.601 19 105.999 19C102.396 19 98.922 20.3366 96.253 22.7498L53.5092 61.6124C51.3953 63.5296 49.9171 66.0435 49.2715 68.8192L36.3613 124.585C35.845 126.795 35.8826 129.098 36.4708 131.29C36.4981 132.911 36.8102 134.566 37.4508 136.182L46.6379 159.473C47.8768 162.597 50.1904 165.179 53.1642 166.756L99.1548 191.292C103.425 193.569 108.583 193.569 112.848 191.292L158.844 166.751C161.817 165.175 164.13 162.595 165.37 159.473L174.557 136.182C175.203 134.549 175.516 132.884 175.532 131.252C176.101 129.133 176.167 126.856 175.641 124.585L162.726 68.8138C162.08 66.038 160.602 63.5242 158.488 61.6069L115.744 22.7498Z" fill="white"/>
</g>
<path d="M120.862 116.478C120.552 118.798 120.22 121.172 119.863 123.619C119.162 128.404 118.401 133.156 117.595 137.784C115.434 136.012 113.422 134.067 111.583 131.97C109.425 129.524 107.504 126.863 105.849 124.035C101.139 132.08 94.2896 138.726 86.0789 143.187C85.7313 143.377 85.387 143.56 85.0395 143.739C79.6088 146.533 73.6095 148.38 67.2596 149.064C66.3687 144.439 65.5378 139.789 64.767 135.113C63.3896 126.844 62.2017 118.505 61.2066 110.103C60.7485 106.26 60.3315 102.404 59.9618 98.5419C66.1254 95.8116 72.586 93.6079 79.2803 92C79.6088 95.9472 79.9911 99.8976 80.4144 103.829C80.5724 105.292 80.7367 106.761 80.9009 108.221C81.5391 113.81 82.2784 119.369 83.0808 124.899C90.2427 118.685 95.6575 110.51 98.4724 101.212C98.6524 101.193 98.8262 101.187 98.9999 101.178C101.268 101.039 103.555 100.969 105.849 100.969C108.143 100.969 110.43 101.039 112.698 101.178C112.872 101.187 113.046 101.193 113.226 101.212C114.692 106.052 116.865 110.588 119.611 114.703C120.015 115.305 120.432 115.894 120.862 116.478Z" fill="black"/>
<path d="M151.736 98.5419C151.367 102.404 150.95 106.26 150.492 110.103C149.497 118.505 148.309 126.844 146.931 135.113C146.16 139.789 145.33 144.439 144.439 149.064C144.075 150.981 143.693 152.882 143.305 154.793C139.754 158.336 136.038 161.725 132.184 164.948C127.922 168.507 123.481 171.861 118.874 174.989C116.951 176.304 114.995 177.574 113.011 178.801C110.664 180.254 108.275 181.66 105.849 183C101.382 180.522 97.035 177.852 92.8238 174.989C88.2177 171.861 83.7759 168.507 79.5141 164.948C76.7088 162.605 73.9792 160.177 71.3382 157.662C77.1669 156.728 82.7112 154.957 87.8449 152.485C88.7295 152.053 89.6046 151.605 90.4607 151.139C94.7225 155.82 99.9604 159.597 105.849 162.148C110.648 160.073 115.001 157.186 118.751 153.661C121.099 151.441 123.212 148.97 125.038 146.299C125.24 145.262 125.43 144.231 125.619 143.188C126.719 137.128 127.714 131.027 128.617 124.899C129.42 119.369 130.159 113.81 130.797 108.221C130.962 106.761 131.126 105.292 131.284 103.829C131.707 99.8976 132.089 95.9472 132.418 92C139.112 93.6079 145.573 95.8116 151.736 98.5419Z" fill="black"/>
<path d="M151.736 98.5419C151.367 102.404 150.95 106.26 150.492 110.103C149.497 118.505 148.309 126.844 146.931 135.113C146.16 139.789 145.33 144.439 144.439 149.064C144.075 150.981 143.693 152.882 143.305 154.793C139.754 158.336 136.038 161.725 132.184 164.948C127.922 168.507 123.481 171.861 118.874 174.989C116.951 176.304 114.995 177.574 113.011 178.801C110.664 180.254 108.275 181.66 105.849 183C101.382 180.522 97.035 177.852 92.8238 174.989C88.2177 171.861 83.7759 168.507 79.5141 164.948C76.7088 162.605 73.9792 160.177 71.3382 157.662C77.1669 156.728 82.7112 154.957 87.8449 152.485C88.7295 152.053 89.6046 151.605 90.4607 151.139C94.7225 155.82 99.9604 159.597 105.849 162.148C110.648 160.073 115.001 157.186 118.751 153.661C121.099 151.441 123.212 148.97 125.038 146.299C125.24 145.262 125.43 144.231 125.619 143.188C126.719 137.128 127.714 131.027 128.617 124.899C129.42 119.369 130.159 113.81 130.797 108.221C130.962 106.761 131.126 105.292 131.284 103.829C131.707 99.8976 132.089 95.9472 132.418 92C139.112 93.6079 145.573 95.8116 151.736 98.5419Z" fill="black"/>
<defs>
<clipPath id="clip0_2001_158">
<rect width="212" height="212" fill="white"/>
</clipPath>
</defs>
</svg>
